<svg width="18" height="18" viewBox="0 0 18 18" fill="none" xmlns="http://www.w3.org/2000/svg">
<path opacity="0.4" d="M6.75 1.50012C4.785 1.50012 3.1875 3.09762 3.1875 5.06262C3.1875 6.99012 4.695 8.55012 6.66 8.61762C6.72 8.61012 6.78 8.61012 6.825 8.61762C6.84 8.61762 6.8475 8.61762 6.8625 8.61762C6.87 8.61762 6.87 8.61762 6.8775 8.61762C8.7975 8.55012 10.305 6.99012 10.3125 5.06262C10.3125 3.09762 8.715 1.50012 6.75 1.50012Z" fill="white"/>
<path d="M10.56 10.6126C8.4675 9.2176 5.055 9.2176 2.9475 10.6126C1.995 11.2501 1.47 12.1126 1.47 13.0351C1.47 13.9576 1.995 14.8126 2.94 15.4426C3.99 16.1476 5.37 16.5001 6.75 16.5001C8.13 16.5001 9.51 16.1476 10.56 15.4426C11.505 14.8051 12.03 13.9501 12.03 13.0201C12.0225 12.0976 11.505 11.2426 10.56 10.6126Z" fill="white"/>
<path opacity="0.4" d="M14.9925 5.50514C15.1125 6.96014 14.0775 8.23514 12.645 8.40764C12.6375 8.40764 12.6375 8.40764 12.63 8.40764H12.6075C12.5625 8.40764 12.5175 8.40764 12.48 8.42264C11.7525 8.46014 11.085 8.22764 10.5825 7.80014C11.355 7.11014 11.7975 6.07514 11.7075 4.95014C11.655 4.34264 11.445 3.78764 11.13 3.31514C11.415 3.17264 11.745 3.08264 12.0825 3.05264C13.5525 2.92514 14.865 4.02014 14.9925 5.50514Z" fill="white"/>
<path d="M16.4925 12.4426C16.4325 13.1701 15.9675 13.8001 15.1875 14.2276C14.4375 14.6401 13.4925 14.8351 12.555 14.8126C13.095 14.3251 13.41 13.7176 13.47 13.0726C13.545 12.1426 13.1025 11.2501 12.2175 10.5376C11.715 10.1401 11.13 9.82511 10.4925 9.59261C12.15 9.11261 14.235 9.43511 15.5175 10.4701C16.2075 11.0251 16.56 11.7226 16.4925 12.4426Z" fill="white"/>
</svg>
