<svg xmlns="http://www.w3.org/2000/svg" width="24" height="24" fill="none" viewBox="0 0 24 24"><g fill="#FF3737" clip-path="url(#a)"><path fill-opacity="0.4" d="m10.575 1.748-7.058 1.11A2.256 2.256 0 0 0 1.56 5.093v13.845c0 1.132.84 2.085 1.957 2.235l7.058 1.11c.097.014.195.014.285.014.547 0 1.072-.195 1.485-.555a2.248 2.248 0 0 0 .765-1.695V3.983a2.248 2.248 0 0 0-2.535-2.235Z"/><path d="M20.19 4.11h-5.58v7.14h2.423l-.773-.69a.755.755 0 0 1-.06-1.058.757.757 0 0 1 1.065-.06l2.228 1.995c.15.143.247.346.247.563 0 .217-.097.42-.247.563l-2.228 1.994a.748.748 0 0 1-.502.188.751.751 0 0 1-.563-.247.755.755 0 0 1 .06-1.058l.773-.69H14.61v7.17h5.58a2.252 2.252 0 0 0 2.25-2.25V6.36a2.252 2.252 0 0 0-2.25-2.25Z"/></g><defs><clipPath id="a"><path fill="#fff" d="M0 0h24v24H0z"/></clipPath></defs></svg>