<svg xmlns="http://www.w3.org/2000/svg" viewBox="0 0 18 18" fill="none">
    <path opacity=".4" d="M15.938 6.863a10.928 10.928 0 0 0-1.223-1.583l-2.827 2.828c.09.277.142.577.142.892 0 1.68-1.357 3.03-3.03 3.03a2.89 2.89 0 0 1-.892-.143l-2.595 2.595c1.095.616 2.28.938 3.487.938 1.335 0 2.633-.39 3.818-1.117 1.185-.736 2.25-1.808 3.12-3.173.75-1.17.75-3.09 0-4.267Z" fill="#fff"/>
    <path d="m10.515 7.485-3.03 3.03c-.382-.39-.63-.93-.63-1.515A2.15 2.15 0 0 1 9 6.855c.585 0 1.126.247 1.515.63Z" fill="#fff"/>
    <path opacity=".4" d="m13.688 4.313-2.543 2.542A2.99 2.99 0 0 0 9 5.97 3.026 3.026 0 0 0 5.97 9c0 .84.338 1.598.885 2.145L4.32 13.688h-.008a10.712 10.712 0 0 1-2.25-2.558c-.75-1.177-.75-3.09 0-4.267.87-1.365 1.936-2.438 3.12-3.173C6.367 2.97 7.665 2.573 9 2.573c1.672 0 3.293.615 4.688 1.74Z" fill="#fff"/>
    <path d="M11.145 9A2.15 2.15 0 0 1 9 11.145c-.045 0-.083 0-.128-.015l2.258-2.257c.015.045.015.082.015.127ZM16.328 1.672a.58.58 0 0 0-.818 0L1.673 15.517a.58.58 0 0 0 0 .818.569.569 0 0 0 .81-.008L16.328 2.482a.558.558 0 0 0 0-.81Z" fill="#fff"/>
</svg>
