<svg xmlns="http://www.w3.org/2000/svg" viewBox="0 0 18 18" fill="none">
    <path opacity=".4" d="M15.938 6.863C14.204 4.14 11.67 2.573 9 2.573c-1.335 0-2.633.39-3.817 1.117-1.185.735-2.25 1.808-3.12 3.173-.75 1.177-.75 3.09 0 4.267C3.795 13.86 6.33 15.42 9 15.42c1.335 0 2.633-.39 3.818-1.117 1.184-.736 2.25-1.808 3.12-3.173.75-1.17.75-3.09 0-4.267ZM9 12.03A3.026 3.026 0 0 1 5.97 9c0-1.672 1.35-3.03 3.03-3.03 1.68 0 3.03 1.358 3.03 3.03 0 1.672-1.35 3.03-3.03 3.03Z" fill="#fff"/>
    <path d="M9 6.855a2.141 2.141 0 0 0 0 4.283c1.177 0 2.145-.96 2.145-2.138A2.154 2.154 0 0 0 9 6.855Z" fill="#fff"/>
</svg>
